<?xml version="1.0" encoding="utf-8"?>
<!-- Generator: Adobe Illustrator 14.0.0, SVG Export Plug-In . SVG Version: 6.00 Build 43363)  -->
<!DOCTYPE svg PUBLIC "-//W3C//DTD SVG 1.1//EN" "http://www.w3.org/Graphics/SVG/1.1/DTD/svg11.dtd">
<svg version="1.1" id="Layer_1" xmlns="http://www.w3.org/2000/svg" xmlns:xlink="http://www.w3.org/1999/xlink" x="0px" y="0px"
	 width="828px" height="828px" viewBox="0 0 828 828" enable-background="new 0 0 828 828" xml:space="preserve">
<path stroke="lightgray" fill="green" d="M-21.502,449.192c0-3.757-0.84-6.267-1.942-6.902c-8.685-5.022-43.531-4.353-57.679-10.339
	c-3.262-1.379-5.887-2.008-8.309-1.963c-8.085,0.146-13.911,7.777-33.59,19.92c-25.575,15.78-83.797,56.591-93.048,56.047
	c-9.25-0.545-81.076-11.428-92.503-9.251c-11.242,2.142-71.992,42.204-72.918,47.126c-0.015,0.082-0.014,0.152,0.003,0.215
	c1.088,3.809,15.78-4.354,32.104-14.692c16.324-10.339,34.825-20.678,47.34-19.045c11.171,1.458,62.239,12.886,78.873,15.323
	c0.006,0,0.006,0,0.012,0c1.496,0.272,1.475,7.384,1.071,16.977c-6.502,4.701-12.303,8.69-18.104,18.125
	c-5.806,9.431-8.347,14.927-24.307,15.623c-15.96,0.702-27.207-6.139-34.46,0c-7.259,6.143-21.407,19.562-15.601,21.379
	c5.806,1.813,18.136-18.849,23.218-17.586c5.077,1.262,32.648,9.604,41.355,2.709c8.706-6.889,26.951-23.931,26.951-18.849
	l0.011-0.283c-0.06,1.802-0.114,3.592-0.147,5.349c-0.386,19.59,3.292,23.578-9.767,29.385
	c-13.06,5.806-46.796,21.765-65.662,37.725c-18.86,15.965-22.125,36.277-25.031,43.531c-2.9,7.258-17.771,12.336-30.472,14.512
	c-12.695,2.177-15.236,5.441-15.236,8.707c0,0.406,0.701,0.582,1.939,0.576c8.717-0.035,44.041-9.054,48.486-10.007
	c5.077-1.088,7.618-10.159,11.248-22.495c3.624-12.33,14.507-21.4,18.136-27.206c3.629-5.801,84.521-39.179,85.61-40.626
	c1.088-1.452,3.994-7.982,2.415-25.231c-1.572-17.233,1.062-59.546,3.33-60.84h0.006c7.504-4.093,16.384-9.234,25.787-14.687
	c0.046-0.027,0.092-0.054,0.138-0.08l-0.002,0.004l0.38,0.982c-1.428,4.292-11.653,20.084-12.101,22.764
	c-0.496,2.982,16.265,41.844,22.484,51.856v0.005c1.812,3.439-7.613,13.62-12.689,29.215c-5.077,15.601-11.248,25.755-13.783,27.207
	c-2.542,1.453-36.278,16.324-35.19,20.313c1.088,3.993,9.071,0.364,18.136-5.077c9.071-5.441,24.671-7.617,26.119-13.424
	c1.447-5.789,26.5-51.775,30.547-51.002c1.284,0.348,2.623,0.675,3.989,0.984c2.558,0.609,3.553,34.058,7.395,40.588
	c3.842,6.529,17.2,25.395,18.289,23.219c1.094-2.178,0.365-4.719,0-7.618c-0.359-2.905-12.335-15.966-14.147-20.319
	c-1.812-4.353-1.812-27.93-4.141-34.395c2.161,0.381,4.293,0.719,6.318,1.023c10.882,1.633,18.501,2.721,17.957-1.633
	c-0.25-2.008-7.227-4.483-15.312-6.883l-0.011-0.006c-3.548-1.109,11.873-9.615,8.973-11.068c-2.9-1.452-15.889,9.061-17.918,8.512
	h-0.006c-6.54-1.829-12.482-3.488-14.904-4.702c-6.529-3.265-14.147-32.104-15.78-41.354s13.604-28.295,21.265-44.037
	c1.992-1.121,3.978-2.221,5.942-3.303c32.648-17.957,60.399-21.766,77.268-17.413c16.868,4.353,26.119,19.045,34.825,4.353
	C-23.218,462.484-21.501,454.563-21.502,449.192z"/>
</svg>
