<?xml version="1.0" encoding="utf-8"?>
<!-- Generator: Adobe Illustrator 14.0.0, SVG Export Plug-In . SVG Version: 6.00 Build 43363)  -->
<!DOCTYPE svg PUBLIC "-//W3C//DTD SVG 1.1//EN" "http://www.w3.org/Graphics/SVG/1.1/DTD/svg11.dtd">
<svg version="1.1" id="Layer_2" xmlns="http://www.w3.org/2000/svg" xmlns:xlink="http://www.w3.org/1999/xlink" x="0px" y="0px"
	 width="828px" height="828px" viewBox="0 0 828 828" enable-background="new 0 0 828 828" xml:space="preserve">
<path fill="#FBD7E0" d="M343.482,343.482c6.375,4.049,1.75,16.362-7.031,18.179c3.761,0.769,14.06,6.398,12.901,13.079
	c-1.16,6.681-10.043,7.275-15.491-1.224c-0.476,8.896-5.938,9.945-10.262,9.789c-4.323-0.157-7.338-8.313-0.262-15.927
	c-6.145,2.765-17.432,1.762-17.866-7.371c-0.32-6.746,8.177-8.333,14.909-6.158c-4.298-6.659-3.505-13.013,0.576-14.928
	c0.573-0.269,1.164-0.43,1.759-0.492c4.166-0.438,8.529,3.93,8.304,9.516C-355.945,335.164-349.858,326.651-343.482"
/>
	<animateTransform attributeType="xml" attributeName="transform" type="rotate" from="0 328 360" to="360 328 360" dur="1.5s" repeatCount="indefinite" />


</svg>

