<?xml version="1.0" encoding="utf-8"?>
<!-- Generator: Adobe Illustrator 14.0.0, SVG Export Plug-In . SVG Version: 6.00 Build 43363)  -->
<!DOCTYPE svg PUBLIC "-//W3C//DTD SVG 1.1//EN" "http://www.w3.org/Graphics/SVG/1.1/DTD/svg11.dtd">
<svg version="1.1" id="Layer_2" xmlns="http://www.w3.org/2000/svg" xmlns:xlink="http://www.w3.org/1999/xlink" x="0px" y="0px"
	 width="828px" height="828px" viewBox="0 0 828 828" enable-background="new 0 0 828 828" xml:space="preserve">
	 <path fill="#F38CB5" d="M358.981,229.771c3.776,2.398,1.036,9.691-4.165,10.768c2.229,0.456,8.329,3.79,7.643,7.747
	c-0.687,3.957-5.949,4.31-9.176-0.725c-0.282,5.269-3.517,5.891-6.079,5.798c-2.56-0.092-4.346-4.924-0.155-9.434
	c-3.64,1.638-10.326,1.043-10.583-4.366c-0.005-0.116-0.006-0.23-0.003-0.341c0.105-3.708,4.963-4.557,8.834-3.306
	c-2.546-3.945-2.077-7.708,0.342-8.843c0.679-0.319,1.4-0.38,2.098-0.234c2.094,0.438,3.977,2.744,3.863,5.58
	C-366.363,232.415-362.758,227.373-358.981"/>	

<animateTransform attributeType="xml" attributeName="transform" type="rotate" from="0 350 239" to="360 350 239" dur="3s" repeatCount="indefinite" />

	</svg>
