<?xml version="1.0" encoding="utf-8"?>
<!-- Generator: Adobe Illustrator 14.0.0, SVG Export Plug-In . SVG Version: 6.00 Build 43363)  -->
<!DOCTYPE svg PUBLIC "-//W3C//DTD SVG 1.1//EN" "http://www.w3.org/Graphics/SVG/1.1/DTD/svg11.dtd">
<svg version="1.1" id="Layer_1" xmlns="http://www.w3.org/2000/svg" xmlns:xlink="http://www.w3.org/1999/xlink" x="0px" y="0px"
	 width="778.553px" height="1545.895px" viewBox="0 0 778.553 1545.895" enable-background="new 0 0 778.553 1545.895"
	 xml:space="preserve">
<path stroke="lightgray" fill="green" d="M526.368,724.529c-2.667-5.675-7.737-9.849-13.399-12.343c-3.313-1.459-6.859-2.399-10.456-2.801
	c-2.823-0.316-6.482,0.399-7.618-2.988l-0.01-0.03c-1.938-7.749-9.107-13.536-16.201-16.389l-8.432-3.405c-0.01,0-0.01,0-0.01,0
	c-2.593-1.049-2.553-3.859-0.208-5.215l7.829-4.523c0.386-0.228,0.871-0.267,1.297-0.089l36.312,14.628l2.484-6.156l-26.712-10.768
	c-2.474-1-2.88-3.672-0.455-5.087l10.006-5.78c0.396-0.228,0.881-0.257,1.296-0.089l16.667,6.71l2.484-6.156l-15.35-6.186
	c-0.634-0.248-1.01-0.911-0.92-1.583l2.316-16.39l-6.572-0.92l-2.513,17.785c-0.059,0.455-0.327,0.851-0.722,1.079l-10.016,5.79
	c-2.366,1.346-4.563-0.208-4.177-2.939l4.028-28.523l-6.572-0.93l-5.473,38.776c-0.069,0.455-0.336,0.851-0.732,1.079l-7.829,4.522
	c-2.286,1.297-4.78,0.07-4.424-2.722l0.01-0.069l1.277-9.016c0.861-6.136,0.178-12.56-2.959-17.983h-0.01
	c-0.871-1.524-1.841-2.811-2.811-3.889h-0.01c-0.099-0.119-0.208-0.238-0.317-0.347l-0.02-0.029
	c-1.227-1.366-1.385-3.059-0.515-4.671h0.01c5.547-9.237,6.927-22.457,0.525-31.641l-0.891-1.277l-1.554-0.128
	c-6.475-0.599-12.75,1.918-17.784,5.862c-2.616,2.049-4.938,4.463-6.978,7.083c-1.754,2.251-3.178,5.948-6.661,5.236l-0.04-0.01
	c-0.158-0.04-0.316-0.07-0.465-0.109c-1.416-0.296-3.009-0.495-4.76-0.495h-0.01h-0.02c-6.265,0-12.163,2.623-17.042,6.433
	l-7.166,5.611c-2.108,2.108-4.612-0.03-4.631-2.424v-9.046c0-0.456,0.218-0.881,0.574-1.168l30.839-24.128l-4.097-5.225
	l-22.684,17.755c-2.128,1.653-4.602,0.624-4.631-2.158v-11.559c0-0.456,0.218-0.891,0.574-1.168l14.153-11.074l-4.098-5.226
	l-13.034,10.194c-0.535,0.425-1.287,0.425-1.821,0l-13.034-10.194l-4.097,5.226l14.152,11.074c0.357,0.277,0.574,0.713,0.574,1.168
	v11.559c-0.01,2.801-2.534,3.781-4.632,2.158v-0.01l-22.684-17.745l-4.097,5.225l30.838,24.128c0.357,0.287,0.574,0.713,0.574,1.168
	v9.046c-0.013,2.596-2.489,4.064-4.632,2.424l-7.166-5.611c-4.879-3.811-10.778-6.433-17.043-6.433h-0.01h-0.02
	c-1.752,0-3.345,0.198-4.75,0.495h-0.01c-0.148,0.04-0.307,0.07-0.465,0.109l-0.03,0.01c-3.299,0.62-4.521-2.387-6.178-4.591
	c-2.007-2.67-4.298-5.142-6.884-7.261c-5.164-4.231-11.607-6.93-18.37-6.329l0.01-0.01l-1.643,0.168l-0.95,1.336
	c-3.649,5.245-4.683,11.833-3.932,18.086c0.384,3.197,1.217,6.34,2.435,9.32c1.12,2.741,4.099,6.089,1.557,8.895l-0.02,0.03
	c-5.601,5.987-7.205,14.291-6.076,22.228l1.286,9.016v0.05c0.376,2.8-2.147,4.038-4.414,2.742l-7.838-4.513
	c-0.386-0.228-0.663-0.624-0.723-1.069l-5.522-38.766l-6.572,0.93l4.067,28.522c0.366,2.682-1.811,4.286-4.186,2.93l-10.015-5.77
	c-0.396-0.228-0.664-0.624-0.722-1.068l-2.534-17.795l-6.572,0.94l2.326,16.379c0.099,0.673-0.277,1.336-0.91,1.583l-15.34,6.206
	l2.484,6.156l16.657-6.74c0.426-0.168,0.91-0.128,1.296,0.099l10.016,5.77c2.415,1.395,2.068,4.048-0.436,5.086h-0.01
	l-26.702,10.788l2.494,6.156l36.302-14.677c0.416-0.168,0.9-0.128,1.296,0.099l7.829,4.513c2.326,1.346,2.395,4.176-0.208,5.215
	l-8.442,3.415c-5.74,2.326-10.956,6.126-14.083,11.56v0.01c-0.881,1.523-1.584,3.147-2.098,4.839l-0.01,0.03
	c-0.574,1.761-1.949,2.722-3.781,2.781v-0.01c-10.719,0-22.921,5.235-27.662,15.39l-0.653,1.405l0.653,1.415
	c2.74,5.808,7.985,10.041,13.822,12.5c2.939,1.239,6.052,2.011,9.208,2.442c2.93,0.4,7.284-0.389,8.453,3.159l0.01,0.04
	c2.395,7.849,8.769,13.381,16.211,16.37l8.442,3.404c2.603,1.049,2.553,3.86,0.218,5.216l-7.829,4.533
	c-0.396,0.228-0.871,0.257-1.296,0.089l-36.322-14.618l-2.484,6.166l26.732,10.748c2.389,0.966,2.744,3.752,0.445,5.087
	l-10.006,5.79c-0.396,0.228-0.871,0.258-1.297,0.09l-16.666-6.71l-2.474,6.166l15.35,6.176c0.634,0.248,1.01,0.911,0.921,1.583
	l-2.306,16.389l6.572,0.92l2.504-17.794c0.059-0.446,0.327-0.851,0.722-1.079l10.006-5.79c2.375-1.346,4.562,0.197,4.186,2.929v0.01
	l-4.009,28.523l6.572,0.92l5.453-38.776c0.059-0.455,0.326-0.852,0.722-1.079l7.828-4.523c2.326-1.336,4.8-0.029,4.414,2.781v0.01
	l-1.267,9.017c-1.135,7.945,0.572,16.207,6.116,22.218c1.645,1.653,1.037,3.665,0.102,5.511c-1.588,3.136-2.793,6.476-3.517,9.917
	c-1.493,7.105-0.81,14.827,3.434,20.903l0.891,1.277l1.554,0.129c11.193,0.96,21.704-6.997,27.108-16.271l0.02-0.03
	c0.96-1.563,2.504-2.266,4.295-1.89h0.02c0.168,0.04,0.327,0.069,0.475,0.109h0.01c1.405,0.297,2.999,0.495,4.74,0.495h0.01h0.02
	c6.275,0,12.173-2.623,17.042-6.443l7.166-5.611c2.118-2.118,4.612,0.01,4.632,2.415l0.01,9.046c0,0.456-0.208,0.891-0.574,1.167
	L351.5,855.287l4.097,5.226l22.674-17.765c2.128-1.663,4.602-0.633,4.632,2.158v11.549c0,0.456-0.208,0.891-0.564,1.178
	l-14.143,11.075l4.088,5.226l13.034-10.204c0.534-0.426,1.286-0.426,1.831,0l13.035,10.194l4.087-5.235l-14.153-11.065
	c-0.366-0.277-0.573-0.712-0.573-1.168l-0.01-11.549c0-2.811,2.544-3.811,4.632-2.167l22.693,17.745l4.088-5.235l-30.849-24.119
	c-0.357-0.277-0.564-0.713-0.564-1.168l-0.01-9.026c0-2.86,2.336-3.969,4.632-2.435l7.166,5.602
	c6.293,4.918,14.335,7.684,22.288,5.819l0.04-0.009c1.801-0.376,3.345,0.327,4.305,1.89l0.01,0.03
	c5.484,9.362,15.85,17.147,27.137,16.241l1.544-0.129l0.89-1.276c3.633-5.217,4.674-11.717,3.919-17.942
	c-0.39-3.22-1.235-6.383-2.436-9.394c-1.103-2.766-4.039-6.174-1.522-8.976l0.02-0.03c0.109-0.119,0.218-0.238,0.317-0.346h0.01
	c5.354-5.978,6.859-14.103,5.76-21.873l-1.276-9.016v-0.01c-0.386-2.821,2.118-4.098,4.414-2.781v-0.01l7.828,4.523
	c0.396,0.228,0.663,0.624,0.733,1.079l5.492,38.766l6.572-0.93l-4.038-28.523c-0.386-2.682,1.801-4.285,4.177-2.929l10.015,5.77
	c0.396,0.228,0.663,0.624,0.722,1.079l2.524,17.794l6.572-0.94l-2.326-16.379c-0.089-0.673,0.287-1.336,0.92-1.584l15.35-6.195
	l-2.484-6.156l-16.666,6.72c-0.426,0.178-0.901,0.139-1.297-0.09l-10.016-5.77c-2.405-1.406-2.058-4.068,0.456-5.087l26.702-10.788
	l-2.484-6.156l-36.312,14.658c-0.416,0.168-0.901,0.139-1.297-0.089l-7.829-4.523c-2.335-1.355-2.385-4.176,0.218-5.216l8.432-3.404
	c5.75-2.326,10.966-6.116,14.093-11.559h0.01c0.863-1.511,1.637-3.152,2.088-4.84l0.01-0.03c0.555-1.703,2.019-2.723,3.791-2.781
	c10.777,0,22.875-5.174,27.672-15.37l0.653-1.405L526.368,724.529 M382.804,704.675l-2.682,6.7
	c-0.248,0.614-0.663,1.178-1.208,1.554c-0.148,0.119-0.307,0.228-0.485,0.287c-0.604,0.277-1.257,0.327-1.901,0.248h-0.02
	l-7.145-1.019c-0.654-0.099-1.158-0.614-1.257-1.257l-2.118-14.677c-0.138-0.92-0.02-1.88,0.564-2.632
	c0.257-0.624,0.831-0.96,1.494-0.891c0.97-0.168,1.89,0.218,2.642,0.811l11.649,9.165
	C382.853,703.369,383.041,704.062,382.804,704.675 M371.254,725.895v0.079v0.01v0.02v0.01c0,0.742-0.297,1.475-0.762,2.048
	l-4.454,5.681c-0.406,0.515-1.108,0.703-1.722,0.455l-13.767-5.502c-1.098-0.436-2.128-1.346-2.187-2.603v-0.168
	c0.059-1.267,1.079-2.168,2.187-2.613l13.757-5.522c0.613-0.248,1.306-0.06,1.712,0.455l4.473,5.671
	C370.937,724.469,371.234,725.172,371.254,725.895 M378.944,650.044c2.029-0.723,3.879,0.149,3.889,2.474v9.788
	c-0.014,2.425-2.433,3.449-4.295,2l-8.383-6.562c-1.801-1.416-1.524-3.93,0.703-4.741L378.944,650.044 M347.096,643.572
	c1.111-3.21,1.704-6.615,1.496-10.017c-0.131-2.132-0.318-4.652,2.304-5.225l0.05-0.01c5.715-1.085,11.413,1.195,15.885,4.662
	l0.04,0.02l8.868,6.948c1.534,1.207,1.653,3.593-0.396,4.344h-0.01l-10.797,3.949c-5.254,1.906-11.536,2.471-16.577-0.386
	l-0.03-0.009C346.34,646.967,346.621,645.018,347.096,643.572 M343.453,659.13l0.02-0.079c0.376-1.198,1.029-2.355,2.118-3.039
	l0.099-0.059c1.148-0.604,2.534-0.644,3.78-0.356l0.069,0.02c2.615,0.753,4.867,2.45,7.1,3.938c2.78,1.852,5.683,3.53,8.517,5.297
	c5.658,3.528,11.64,6.708,16.984,10.707c0.425,0.277,0.693,0.752,0.693,1.257v9.669c-0.013,2.122-2.056,3.753-3.969,2.345
	l-22.271-16.292c-1.977-1.447-2.238-1.16-1.988,1.258l3.001,27.327c0.257,2.395-2.098,3.355-4.018,2.267l-8.383-4.83
	c-0.435-0.248-0.712-0.712-0.742-1.217c0-6.407-0.531-12.802-0.762-19.203c-0.12-3.303-0.231-6.606-0.311-9.911
	C343.318,665.255,342.734,662.057,343.453,659.13 M317.237,618.75c0.091-2.283,0.343-8.541,3.757-8.208
	c3.679,0.357,7.314,2.226,10.219,4.425c6.384,4.835,11.214,12.905,10.746,21.094c-0.154,2.692-0.917,8.611-4.556,8.585
	c-3.714-0.026-7.377-1.625-10.272-3.875C320.583,635.685,316.916,626.958,317.237,618.75 M315.05,656.567
	c0.376-3.603,1.692-7.077,4.057-9.837l0.04-0.05c1.475-1.604,3.236-1.069,4.78,0.03h0.01c3.048,2.167,6.571,3.662,10.263,4.285
	l0.05,0.01c1.465,0.287,3.197,0.96,3.266,2.711h0.01v0.099c0,0.01,0.01,0.01,0.01,0.02l-0.01,0.03v0.02
	c-0.163,5.868-3.572,10.892-7.948,14.558l-8.798,7.393h-0.01c-1.692,1.435-3.681,0.099-3.969-1.821l-1.583-11.154v-0.029l-0.01-0.02
	C314.937,660.74,314.839,658.648,315.05,656.567 M324.155,686.435c-1.979-1.158-1.841-3.226-0.198-4.611v0.01l6.601-5.542
	c1.811-1.514,4.107-0.544,4.454,1.771l1.494,10.53c0.346,2.435-1.673,3.959-3.869,2.722L324.155,686.435 M328.915,701.786h-0.01
	l-9.867,3.988c-2.103,0.854-4.195-0.64-3.751-2.969l1.475-8.481c0.376-2.147,2.059-3.276,4.077-2.138l8.482,4.879
	C331.488,698.322,331.181,700.855,328.915,701.786 M283.943,707.783l0.02-0.05c1.946-5.522,6.68-9.275,11.956-11.441l0.04-0.01
	l0.01-0.01l10.442-4.216c1.811-0.733,3.929,0.336,3.573,2.514v0.01l-1.979,11.322c-0.485,2.821-1.366,5.602-2.791,8.086v0.009
	c-1.426,2.455-3.395,4.583-5.81,6.077l-0.03,0.02c-1.529,0.917-3.109-0.279-4.117-1.405c-1.432-1.632-2.949-3.119-4.728-4.377
	C288.274,712.718,282.79,711.521,283.943,707.783 M270.989,736.069h-0.01c-3.668-0.358-7.305-1.372-10.57-3.097
	c-2.285-1.208-8.406-4.739-6.857-8.039c1.449-3.087,5.865-5.38,8.833-6.654c4-1.717,8.419-2.542,12.77-2.31
	c4.003,0.214,8.031,1.357,11.357,3.641c1.689,1.159,3.053,2.589,4.328,4.181c1.338,1.67,1.326,2.64,0.099,4.366
	C286.452,734.463,278.428,736.775,270.989,736.069 M306.479,760.039l-0.01-0.01l-10.441-4.196l-0.03-0.01l-0.02-0.01
	c-5.295-2.158-10.026-5.888-11.986-11.421l-0.02-0.06c-0.879-2.853,2.001-3.831,3.97-4.9c2.779-1.508,5.283-3.532,7.292-5.977
	l0.03-0.04c1.01-1.148,2.553-2.355,4.117-1.416l0.03,0.02c4.984,3.096,7.643,8.532,8.63,14.163l1.989,11.322
	C310.418,759.652,308.3,760.751,306.479,760.039 M306.914,729.517l-0.059-0.059c-0.841-0.921-1.524-2.068-1.573-3.355v-0.119
	c0.04-1.277,0.722-2.425,1.573-3.355l0.05-0.059c2.003-1.915,4.648-3.028,7.095-4.247c2.946-1.467,5.807-3.118,8.711-4.666
	c5.869-3.128,11.571-6.898,17.754-9.376c0.455-0.228,0.99-0.218,1.435,0.029l8.373,4.83c1.9,1.099,2.276,3.613,0.06,4.603v0.01
	l-25.248,11.163c-2.399,0.958-1.591,1.524,0,2.225l25.268,11.127c2.217,0.98,1.841,3.503-0.05,4.602l-8.373,4.849
	c-1.808,1.027-7.145-2.914-8.816-3.8c-3.045-1.616-6.088-3.237-9.134-4.852c-2.937-1.556-5.837-3.193-8.797-4.705
	C312.365,732.922,309.234,731.739,306.914,729.517 M324.224,765.621l8.472-4.899c2.08-1.182,4.273,0.348,3.88,2.722l-1.485,10.54
	c-0.327,2.296-2.642,3.276-4.444,1.771l-0.01-0.01l-6.601-5.522C322.445,768.9,322.334,766.724,324.224,765.621 M320.898,759.88
	c-2.029,1.138-3.681,0.02-4.077-2.128l-1.495-8.492c-0.403-2.29,1.603-3.838,3.751-2.969l9.877,3.969
	c2.237,0.91,2.593,3.444,0.416,4.71v0.01L320.898,759.88 M315.317,789.254l0.01-0.01v-0.03l1.573-11.164
	c0.266-1.912,2.332-3.188,3.959-1.821l8.828,7.373c2.195,1.832,4.168,3.978,5.601,6.463v0.01c1.624,2.783,4.674,10.667-0.96,10.966
	c-4.028,0.683-7.502,2.435-10.837,4.731c-1.326,1-3.088,0.821-4.206-0.396C315.585,800.704,314.521,795.107,315.317,789.254
	 M337.288,830.752c-2.446,3.404-5.579,6.23-9.217,8.309c-2.108,1.205-7.06,4.24-9.096,1.6c-2.013-2.609-1.806-6.736-1.549-9.829
	c0.344-4.133,1.436-8.172,3.418-11.828c2.039-3.76,4.971-7.12,8.699-9.272c2.27-1.311,6.316-3.208,9.022-2.466
	c3.264,0.895,3.562,8.499,3.374,11.109C341.62,822.832,339.866,827.132,337.288,830.752 M343.572,792.896
	c-0.657-2.667-0.246-5.488-0.112-8.192c0.166-3.351,0.179-6.712,0.296-10.065c0.121-3.478,0.241-6.955,0.374-10.432
	c0.116-3.022-0.34-6.583,0.383-9.524c0.03-0.504,0.307-0.97,0.742-1.227l8.373-4.84c1.93-1.108,4.266-0.148,4.018,2.247v0.01
	l-3.066,28.445c-0.101,1.171,0.447,1.284,1.177,0.749l23.128-16.952c2.019-1.465,3.949,0.168,3.969,2.346l0.01,9.669
	c0,0.515-0.267,0.98-0.693,1.257c-5.646,2.823-10.667,6.76-16.001,10.104c-2.784,1.745-5.574,3.479-8.379,5.191
	c-2.635,1.608-5.206,3.806-8.21,4.678l-0.079,0.02C344.829,797.044,343.572,792.896,343.572,792.896 M375.786,811.998v0.01
	l-8.867,6.947l-0.03,0.02l-0.01,0.01c-3.681,2.86-8.106,4.938-12.846,4.938h-0.01c-0.01,0-0.01,0-0.02,0h-0.049
	c-1.079-0.009-2.069-0.118-2.949-0.277l-0.06-0.01c-2.148-0.475-2.544-2.296-2.375-4.157v-0.01c0.281-2.735,0.036-5.527-0.592-8.199
	c-0.458-1.949-2.532-5.763-0.002-7.151l0.02-0.01c5.156-2.781,11.223-2.346,16.587-0.396l10.798,3.939
	C377.44,808.405,377.321,810.79,375.786,811.998 M382.873,799.438c-0.01,2.306-1.871,3.187-3.879,2.464h-0.01l-8.095-2.949
	c-2.207-0.812-2.494-3.325-0.693-4.74l8.373-6.562c1.92-1.494,4.276-0.594,4.296,1.99l0.01,9.788
	C382.873,799.428,382.873,799.428,382.873,799.438 M382.349,748.994l-11.639,9.165c-0.94,0.732-2.227,1.168-3.355,0.604
	l-0.148-0.089c-1.069-0.693-1.346-2.029-1.168-3.207l2.098-14.667c0.089-0.653,0.604-1.168,1.257-1.267l7.136-1.029
	c0.624-0.089,1.227-0.02,1.811,0.228c0.129,0.029,0.247,0.079,0.356,0.138c0.01,0.01,0.02,0.01,0.03,0.02
	c0.653,0.367,1.128,1,1.405,1.683l2.682,6.7C383.061,747.885,382.873,748.588,382.349,748.994 M465.848,691.958l10.451,4.216h0.01
	l0.03,0.009c3.464,1.416,6.73,3.474,9.115,6.384h0.01c1.227,1.504,2.207,3.217,2.85,5.048l0.02,0.059
	c0.82,2.64-1.639,3.729-3.58,4.704c-2.948,1.48-5.593,3.635-7.693,6.173l-0.029,0.03c-1.01,1.148-2.544,2.346-4.107,1.415
	l-0.03-0.02c-5.004-3.007-7.652-8.592-8.63-14.163l-1.979-11.322C461.909,692.334,464.018,691.226,465.848,691.958 M456.051,651.648
	c1.326,3.523,1.465,7.373,0.96,11.084v0.02v0.029l-1.584,11.154c-0.277,1.893-2.333,3.188-3.959,1.821l-8.818-7.373
	c-4.384-3.662-7.789-8.69-7.967-14.549v-0.06c-0.01-1.831,1.781-2.523,3.285-2.83l0.04-0.01c4.028-0.684,7.512-2.425,10.847-4.721
	c1.326-1.009,3.088-0.821,4.206,0.396l0.04,0.04C454.368,648.125,455.358,649.827,456.051,651.648 M442.947,697.005l8.472-4.899
	c2.029-1.147,3.681-0.02,4.077,2.138l1.495,8.481c0.396,2.306-1.613,3.811-3.751,2.969h-0.01l-9.867-3.979
	C441.139,700.853,440.793,698.236,442.947,697.005 M439.622,691.255c-2.197,1.247-4.236-0.248-3.88-2.722l1.485-10.54
	c0.337-2.287,2.653-3.276,4.454-1.762h0.01l6.601,5.522c1.643,1.386,1.781,3.444-0.188,4.602h-0.01L439.622,691.255
	 M435.069,621.225c3.26-4.537,7.9-8.239,13.151-10.216c1.878-0.707,4.2-1.327,5.445,0.693c1.305,2.117,1.358,4.983,1.329,7.392
	c-0.141,11.763-7.888,25.479-21.034,25.547h-0.01c-3.319,0-3.713-8.82-3.568-10.944
	C430.689,629.205,432.468,624.869,435.069,621.225 M396.56,639.95l8.868-6.948v0.01l0.03-0.02l0.01-0.01
	c4.513-3.503,10.125-5.741,15.884-4.662l0.06,0.01c3.476,0.773,2.154,5.208,2.284,7.74c0.115,2.234,0.559,4.438,1.211,6.575
	c0.502,1.647,1.442,4.096-0.526,5.202l-0.04,0.009c-5.034,2.854-11.331,2.301-16.577,0.386l-10.797-3.949
	C394.98,643.578,395.043,641.123,396.56,639.95 M389.464,652.519c0.01-2.306,1.871-3.197,3.889-2.464v-0.01l8.096,2.959
	c2.13,0.784,2.443,3.362,0.693,4.741l-8.383,6.562c-1.949,1.513-4.271,0.502-4.295-2V652.519 M389.464,676.816
	c0-0.505,0.267-0.98,0.692-1.257c1.673-1.672,4.095-2.592,6.075-3.845c2.995-1.896,5.993-3.786,8.998-5.666
	c3.097-1.936,6.197-3.868,9.318-5.767c2.637-1.604,5.201-3.803,8.21-4.665l0.079-0.02c1.217-0.277,2.553-0.297,3.691,0.307
	l0.099,0.059c1.089,0.683,1.742,1.851,2.118,3.048l0.02,0.07c0.649,2.645,0.237,5.441,0.11,8.121
	c-0.158,3.35-0.186,6.71-0.303,10.062c-0.233,6.675-0.776,13.348-0.776,20.029c-0.02,0.504-0.297,0.97-0.742,1.217l-8.373,4.84
	c-1.93,1.098-4.285,0.138-4.009-2.257v-0.01c0,0,0,0,0-0.01l2.873-26.55c0.302-2.798-0.158-3.145-2.559-1.458l-21.552,15.766
	c-1.977,1.428-3.948-0.157-3.969-2.345V676.816 M421.748,723.272c1.108,0.445,2.128,1.346,2.187,2.613v0.158
	c-0.059,1.267-1.079,2.167-2.187,2.613l-13.757,5.522c-0.613,0.237-1.316,0.049-1.722-0.465l-4.464-5.671
	c-0.455-0.574-0.762-1.297-0.762-2.039v-0.02v-0.01v-0.02c0-0.01,0-0.01,0-0.01v-0.069c0.02-0.723,0.317-1.425,0.762-1.989
	l4.464-5.661c0.406-0.524,1.098-0.712,1.712-0.465L421.748,723.272 M389.959,702.963l11.649-9.165
	c0.94-0.742,2.247-1.178,3.375-0.593l0.129,0.079c1.069,0.693,1.336,2.029,1.167,3.207l-2.108,14.677
	c-0.089,0.643-0.604,1.158-1.257,1.257l-7.136,1.029h-0.01c-0.742,0.099-1.504,0.01-2.158-0.376v0.01
	c-0.01-0.01-0.01-0.01-0.02-0.01c0,0,0-0.01-0.01-0.01c-0.643-0.366-1.128-0.999-1.405-1.692l-2.682-6.7
	C389.257,704.062,389.445,703.369,389.959,702.963 M389.514,747.272l2.672-6.7c0.267-0.693,0.752-1.326,1.405-1.692
	c0.01-0.01,0.01-0.01,0.02-0.02c0.645-0.369,1.439-0.48,2.167-0.366l7.146,1.02c0.653,0.099,1.167,0.604,1.257,1.257l2.118,14.677
	c0.168,1.178-0.109,2.514-1.168,3.207l-0.139,0.079c-1.128,0.574-2.425,0.138-3.355-0.584l-0.01-0.01l-11.659-9.155
	C389.454,748.578,389.266,747.885,389.514,747.272 M393.403,801.893c-2.029,0.733-3.89-0.148-3.89-2.464l-0.01-9.778
	c0-2.563,2.385-3.493,4.295-2.009l8.383,6.552c1.801,1.415,1.524,3.919-0.693,4.74L393.403,801.893 M425.251,808.346
	c-1.107,3.207-1.705,6.619-1.496,10.017c0.131,2.129,0.328,4.652-2.294,5.224l-0.05,0.02c-1.91,0.356-3.88,0.366-5.8,0.05h-0.01
	c-3.711-0.614-7.125-2.405-10.075-4.701l-0.02-0.01l-0.03-0.02l-8.868-6.938c-1.534-1.208-1.653-3.603,0.406-4.345l10.787-3.949
	c5.418-1.992,11.353-2.338,16.588,0.366l0.029,0.02C426.007,804.942,425.73,806.912,425.251,808.346 M428.804,792.837l-0.02,0.08
	c-0.376,1.197-1.029,2.365-2.118,3.048l-0.099,0.06c-1.138,0.594-2.464,0.584-3.692,0.307l-0.079-0.02
	c-2.617-0.745-4.868-2.448-7.1-3.938c-2.778-1.853-5.683-3.526-8.516-5.293c-5.659-3.528-11.655-6.694-16.994-10.701
	c-0.426-0.268-0.693-0.743-0.693-1.248v-9.669c0-2.188,1.97-3.791,3.959-2.355l23.066,16.867c0.681,0.486,1.359,0.148,1.268-0.686
	l-3.105-28.443c-0.258-2.404,2.088-3.365,4.008-2.266l8.383,4.839c0.436,0.248,0.722,0.713,0.742,1.217
	c0,6.386,0.523,12.762,0.752,19.141c0.119,3.298,0.222,6.597,0.301,9.896C428.94,786.668,429.524,789.887,428.804,792.837
	 M454.071,838.808c-2.735,8.417-16.98-5.25-19.249-8.541c-2.73-3.96-4.498-8.71-4.454-13.559c0.029-3.209,0.747-9.758,5.235-9.353
	h0.01C449.589,808.664,458.123,826.272,454.071,838.808 M457.208,795.42c-0.373,3.594-1.701,7.083-4.067,9.838l-0.03,0.049
	c-2.659,2.854-7.115-1.665-9.718-2.739c-2.163-0.893-8.671-1.175-8.671-4.407c0,0,0,0,0-0.01v-0.01c0-2.821,0.958-5.701,2.355-8.125
	v-0.01c1.445-2.484,3.405-4.632,5.602-6.473l8.808-7.383c1.712-1.445,3.682-0.099,3.979,1.821l1.573,11.154v0.009l0.01,0.04
	C457.337,791.244,457.416,793.342,457.208,795.42 M448.113,765.551c1.979,1.158,1.841,3.216,0.198,4.602l-6.601,5.532
	c-1.811,1.514-4.107,0.544-4.454-1.771l-1.495-10.53c-0.334-2.403,1.69-3.992,3.879-2.722L448.113,765.551 M441.492,752.656
	c0-0.99,0.653-1.959,1.88-2.465l9.867-3.978c2.116-0.849,4.099,0.731,3.76,2.969l-1.484,8.491c-0.364,2.044-2.156,3.209-4.077,2.128
	l-8.482-4.889C441.967,754.338,441.492,753.487,441.492,752.656 M444.006,741.284c-2.52,1.34-5.044,2.671-7.572,3.996
	c-1.282,0.671-4.513,3.267-6.046,2.378l-8.373-4.83c-1.901-1.098-2.277-3.622-0.05-4.611v0.01l24.89-10.996
	c2.832-1.251,2.696-1.358,0.037-2.535l-24.937-10.994c-2.138-0.939-1.801-3.54,0.049-4.602l8.373-4.84
	c0.436-0.257,0.98-0.267,1.425-0.03c5.553,3.468,11.644,6.089,17.418,9.166c2.884,1.537,5.733,3.165,8.661,4.616
	c2.583,1.28,5.397,2.436,7.501,4.468l0.059,0.06c0.851,0.921,1.524,2.069,1.573,3.355v0.108c-0.04,1.287-0.722,2.435-1.573,3.366
	l-0.05,0.049c-2.702,2.399-6.485,4.052-9.651,5.751C451.855,737.255,447.907,739.224,444.006,741.284 M488.344,744.214l-0.019,0.059
	c-1.95,5.533-6.68,9.273-11.966,11.431l-0.029,0.009l-0.04,0.02l-10.422,4.206c-1.811,0.723-3.949-0.346-3.563-2.523
	c0-0.01,0-0.01,0-0.01l1.979-11.312c0.92-5.266,3.266-10.402,7.71-13.579h0.01c0.297-0.217,0.594-0.416,0.891-0.594l0.03-0.02
	c1.563-0.939,3.098,0.268,4.117,1.416h-0.01c1.875,2.144,4.029,4.063,6.477,5.53C485.617,740.11,489.357,740.908,488.344,744.214
	 M514.7,731.061c-7.281,5.205-17.819,6.728-26.047,2.94c-2.912-1.341-7.381-4.217-8.115-7.633c-0.638-2.969,4.32-6.417,6.453-7.66
	c6.364-3.71,14.51-3.621,21.308-1.199c3.445,1.227,7.275,3.125,9.748,5.871C520.994,726.65,517.303,729.185,514.7,731.061
	 M533.276,725.982h-0.007v-0.007h0.007V725.982z"/>
</svg>
